<?xml version="1.0" standalone="no"?>
<!DOCTYPE svg PUBLIC "-//W3C//DTD SVG 20010904//EN"
 "http://www.w3.org/TR/2001/REC-SVG-20010904/DTD/svg10.dtd">
<svg version="1.0" xmlns="http://www.w3.org/2000/svg"
 width="225.000000pt" height="225.000000pt" viewBox="0 0 225.000000 225.000000"
 preserveAspectRatio="xMidYMid meet">
<metadata>
Created by potrace 1.14, written by Peter Selinger 2001-2017
</metadata>
<g transform="translate(0.000000,225.000000) scale(0.100000,-0.100000)"
fill="#000000" stroke="none">
<path d="M1222 2232 c-10 -10 -31 -48 -47 -84 l-28 -65 -83 -7 c-461 -35 -821
-333 -946 -784 -19 -66 -22 -103 -22 -257 0 -166 2 -187 27 -270 33 -110 112
-271 168 -344 l41 -54 -71 -151 c-39 -83 -71 -161 -71 -173 0 -12 9 -27 19
-33 22 -11 340 -14 357 -2 6 4 23 31 38 60 16 31 32 52 39 49 177 -75 241 -94
379 -109 232 -26 469 32 669 164 109 72 183 139 252 230 146 192 217 402 217
642 -1 365 -191 700 -504 886 l-75 45 -1 122 c0 97 -3 125 -16 137 -13 13 -43
16 -170 16 -135 0 -156 -2 -172 -18z m268 -201 l0 -119 76 -41 c479 -259 645
-862 363 -1320 -122 -199 -317 -348 -544 -417 -82 -25 -105 -28 -255 -28 -193
-1 -259 13 -423 91 -75 36 -102 45 -115 37 -9 -6 -30 -38 -46 -72 l-30 -62
-102 0 -103 0 65 135 c35 75 64 139 64 144 0 4 -24 39 -54 77 -289 372 -267
881 52 1225 172 184 427 298 669 299 55 0 86 4 95 13 7 8 28 46 47 85 l35 72
103 0 103 0 0 -119z"/>
<path d="M997 1890 c-72 -12 -184 -48 -242 -77 -170 -87 -324 -248 -400 -419
-114 -258 -92 -581 55 -812 37 -58 43 -63 72 -60 31 3 33 6 344 662 171 363
309 667 307 675 -14 40 -42 46 -136 31z m3 -106 c0 -6 -502 -1070 -520 -1104
-12 -20 -54 72 -80 175 -27 106 -27 263 0 371 64 255 246 454 495 539 70 24
105 31 105 19z"/>
<path d="M1502 1768 c-9 -9 -12 -112 -12 -402 l0 -391 -95 95 -95 95 0 202 0
203 -24 16 c-18 11 -30 13 -42 6 -13 -7 -259 -508 -287 -583 -3 -9 1 -26 9
-38 14 -20 24 -21 168 -21 163 0 176 4 176 49 0 23 9 17 80 -54 44 -44 80 -84
80 -90 0 -6 -36 -46 -80 -90 -71 -71 -80 -77 -80 -54 0 47 -9 49 -248 49
l-223 0 -90 -186 c-49 -102 -92 -196 -95 -209 -7 -29 33 -61 137 -109 120 -55
196 -70 344 -71 170 0 289 32 433 116 79 47 240 209 286 289 229 394 133 880
-228 1147 -59 44 -92 53 -114 31z m188 -229 c63 -76 112 -164 146 -264 39
-115 45 -295 15 -415 -116 -465 -603 -707 -1035 -516 -70 31 -71 21 14 199
l61 127 159 0 160 0 0 -65 c0 -53 3 -66 19 -75 11 -5 85 -10 170 -10 123 0
152 3 165 16 14 14 16 78 16 560 l0 545 30 -21 c17 -12 53 -49 80 -81z m-484
-486 c-4 -9 -26 -13 -71 -13 -36 0 -65 2 -65 4 0 2 30 67 68 143 l67 138 3
-129 c1 -72 0 -136 -2 -143z m284 -378 l0 -55 -62 0 -62 0 54 55 c30 30 58 55
62 55 4 0 8 -25 8 -55z"/>
</g>
</svg>
